:FULLY-SPECIFIED
:FORCE-ALL-JOINTS-BE-3DOF
:DEGREES
306
root 8.9999 15.4556 -23.8256 12.2497 57.9642 15.5044
lfemur -16.6898 19.118 -17.9255
ltibia 51.9721 0 0
lfoot -17.306 -25.5642 0
ltoes 58.4537 0 0
rfemur -54.3113 -20.6638 36.764
rtibia 57.7649 0 0
rfoot 17.1559 16.6147 0
rtoes -0.164461 0 0
lowerback 9.58192 -3.18764 -8.3685
upperback 5.01716 -4.77622 -3.98168
thorax 0.247418 -2.41655 0.954971
lowerneck -5.63532 -10.3085 -2.26068
upperneck -2.57968 -13.634 10.5377
head 1.11883 -6.70679 3.31759
lclavicle -3.28844e-14 -1.4045e-14 0
lhumerus -42.5754 -42.3719 99.5278
lradius 59.1656 0 0
lwrist 21.36 0 0
lhand 13.44 11.4757 0
lfingers 7.12502 0 0
lthumb 38.3806 37.1656 0
rclavicle -3.28844e-14 -1.4045e-14 0
rhumerus -34.0874 69.5348 -68.8728
rradius 80.5511 0 0
rwrist 4.64906 0 0
rhand 5.0227 -5.64752 0
rfingers 7.12502 0 0
rthumb 30.3883 -753.127 0
307
root 9.03556 15.4426 -23.7909 12.3034 58.1706 15.8217
lfemur -16.3346 19.0629 -17.9456
ltibia 52.1156 0 0
lfoot -17.3099 -25.9107 0
ltoes 58.5917 0 0
rfemur -55.0266 -21.1301 37.4161
rtibia 57.7782 0 0
rfoot 17.2081 17.352 0
rtoes -0.30275 0 0
lowerback 9.73871 -3.19862 -8.51413
upperback 5.12525 -4.80127 -4.11015
thorax 0.275237 -2.43 0.909921
lowerneck -5.55651 -10.361 -2.27002
upperneck -2.6718 -13.7054 10.7194
head 1.09146 -6.74108 3.37883
lclavicle -3.33958e-14 -1.43125e-14 0
lhumerus -42.4065 -42.5304 99.1545
lradius 59.1219 0 0
lwrist 21.3914 0 0
lhand 13.5646 11.4558 0
lfingers 7.12502 0 0
lthumb 38.4988 37.1176 0
rclavicle -3.33958e-14 -1.43125e-14 0
rhumerus -33.9357 70.9667 -68.9449
rradius 81.2445 0 0
rwrist 3.93263 0 0
rhand 5.47149 -5.7173 0
rfingers 7.12502 0 0
rthumb 30.8196 -753.153 0
308
root 9.01396 15.4579 -23.7247 12.1645 57.3528 15.4794
lfemur -16.096 19.1855 -17.7266
ltibia 51.5815 0 0
lfoot -17.7211 -24.394 0
ltoes 56.6373 0 0
rfemur -54.7205 -20.4968 35.5834
rtibia 57.6745 0 0
rfoot 16.813 15.854 0
rtoes 1.27868 0 0
lowerback 9.60674 -3.07741 -8.29102
upperback 5.07555 -4.62184 -3.98827
thorax 0.278416 -2.34001 0.895929
lowerneck -5.4538 -10.4586 -2.04928
upperneck -2.85842 -13.8299 10.543
head 0.98798 -6.81501 3.30012
lclavicle -3.63502e-14 -1.29111e-14 0
lhumerus -42.8746 -43.1062 99.9881
lradius 59.1605 0 0
lwrist 21.1018 0 0
lhand 13.6184 11.5519 0
lfingers 7.12502 0 0
lthumb 38.5495 37.1991 0
rclavicle -3.63502e-14 -1.29111e-14 0
rhumerus -32.6074 67.8371 -68.4673
rradius 81.1512 0 0
rwrist 3.14437 0 0
rhand 2.60802 -7.77863 0
rfingers 7.12502 0 0
rthumb 28.0629 -755.266 0
309
root 8.99235 15.4732 -23.6585 12.0257 56.535 15.1371
lfemur -15.8574 19.3081 -17.5076
ltibia 51.0474 0 0
lfoot -18.1323 -22.8772 0
ltoes 54.6829 0 0
rfemur -54.4144 -19.8636 33.7507
rtibia 57.5707 0 0
rfoot 16.418 14.3561 0
rtoes 2.86012 0 0
lowerback 9.47477 -2.9562 -8.06791
upperback 5.02585 -4.44242 -3.86639
thorax 0.281595 -2.25002 0.881938
lowerneck -5.3511 -10.5562 -1.82855
upperneck -3.04504 -13.9544 10.3665
head 0.8845 -6.88893 3.22141
lclavicle -3.93047e-14 -1.15096e-14 0
lhumerus -43.3428 -43.682 100.822
lradius 59.1991 0 0
lwrist 20.8123 0 0
lhand 13.6721 11.6479 0
lfingers 7.12502 0 0
lthumb 38.6002 37.2807 0
rclavicle -3.93047e-14 -1.15096e-14 0
rhumerus -31.2791 64.7075 -67.9897
rradius 81.0578 0 0
rwrist 2.35611 0 0
rhand -0.255459 -9.83997 0
rfingers 7.12502 0 0
rthumb 25.3063 -757.38 0
310
root 8.97075 15.4885 -23.5923 11.8868 55.7173 14.7948
lfemur -15.6188 19.4307 -17.2887
ltibia 50.5132 0 0
lfoot -18.5435 -21.3605 0
ltoes 52.7285 0 0
rfemur -54.1083 -19.2303 31.918
rtibia 57.467 0 0
rfoot 16.0229 12.8581 0
rtoes 4.44155 0 0
lowerback 9.3428 -2.83499 -7.8448
upperback 4.97616 -4.26299 -3.74451
thorax 0.284775 -2.16003 0.867946
lowerneck -5.24839 -10.6539 -1.60781
upperneck -3.23165 -14.0789 10.1901
head 0.781019 -6.96286 3.14271
lclavicle -4.22591e-14 -1.01082e-14 0
lhumerus -43.8109 -44.2577 101.655
lradius 59.2377 0 0
lwrist 20.5227 0 0
lhand 13.7259 11.744 0
lfingers 7.12502 0 0
lthumb 38.6509 37.3622 0
rclavicle -4.22591e-14 -1.01082e-14 0
rhumerus -29.9508 61.5779 -67.5121
rradius 80.9645 0 0
rwrist 1.56785 0 0
rhand -3.11893 -11.9013 0
rfingers 7.12502 0 0
rthumb 22.5496 -759.493 0
311
root 8.94914 15.5038 -23.5261 11.7479 54.8995 14.4525
lfemur -15.3802 19.5533 -17.0697
ltibia 49.9791 0 0
lfoot -18.9547 -19.8437 0
ltoes 50.7741 0 0
rfemur -53.8022 -18.5971 30.0854
rtibia 57.3632 0 0
rfoot 15.6279 11.3601 0
rtoes 6.02298 0 0
lowerback 9.21083 -2.71378 -7.62169
upperback 4.92646 -4.08356 -3.62263
thorax 0.287954 -2.07004 0.853954
lowerneck -5.14569 -10.7515 -1.38707
upperneck -3.41827 -14.2034 10.0136
head 0.677539 -7.03678 3.064
lclavicle -4.52136e-14 -8.70678e-15 0
lhumerus -44.2791 -44.8335 102.489
lradius 59.2763 0 0
lwrist 20.2332 0 0
lhand 13.7796 11.84 0
lfingers 7.12502 0 0
lthumb 38.7015 37.4437 0
rclavicle -4.52136e-14 -8.70678e-15 0
rhumerus -28.6225 58.4483 -67.0345
rradius 80.8711 0 0
rwrist 0.779584 0 0
rhand -5.98241 -13.9626 0
rfingers 7.12502 0 0
rthumb 19.7929 -761.607 0
312
root 8.92754 15.5191 -23.4599 11.6091 54.0817 14.1102
lfemur -15.1416 19.6759 -16.8507
ltibia 49.445 0 0
lfoot -19.3659 -18.327 0
ltoes 48.8197 0 0
rfemur -53.4961 -17.9638 28.2527
rtibia 57.2595 0 0
rfoot 15.2328 9.86215 0
rtoes 7.60441 0 0
lowerback 9.07886 -2.59257 -7.39858
upperback 4.87676 -3.90414 -3.50075
thorax 0.291133 -1.98005 0.839963
lowerneck -5.04298 -10.8491 -1.16634
upperneck -3.60489 -14.3278 9.83716
head 0.574059 -7.11071 2.98529
lclavicle -4.8168e-14 -7.30535e-15 0
lhumerus -44.7472 -45.4093 103.323
lradius 59.3149 0 0
lwrist 19.9436 0 0
lhand 13.8334 11.9361 0
lfingers 7.12502 0 0
lthumb 38.7522 37.5252 0
rclavicle -4.8168e-14 -7.30535e-15 0
rhumerus -27.2942 55.3187 -66.557
rradius 80.7778 0 0
rwrist -0.0086775 0 0
rhand -8.84588 -16.024 0
rfingers 7.12502 0 0
rthumb 17.0362 -763.72 0
313
root 8.90593 15.5345 -23.3936 11.4702 53.2639 13.7679
lfemur -14.903 19.7985 -16.6317
ltibia 48.9108 0 0
lfoot -19.7771 -16.8102 0
ltoes 46.8652 0 0
rfemur -53.1899 -17.3306 26.42
rtibia 57.1558 0 0
rfoot 14.8378 8.36418 0
rtoes 9.18584 0 0
lowerback 8.94689 -2.47135 -7.17547
upperback 4.82707 -3.72471 -3.37887
thorax 0.294312 -1.89006 0.825971
lowerneck -4.94028 -10.9467 -0.945601
upperneck -3.79151 -14.4523 9.66071
head 0.470578 -7.18463 2.90658
lclavicle -5.11224e-14 -5.90392e-15 0
lhumerus -45.2153 -45.9851 104.156
lradius 59.3535 0 0
lwrist 19.6541 0 0
lhand 13.8872 12.0321 0
lfingers 7.12502 0 0
lthumb 38.8029 37.6068 0
rclavicle -5.11224e-14 -5.90392e-15 0
rhumerus -25.9659 52.1891 -66.0794
rradius 80.6845 0 0
rwrist -0.796939 0 0
rhand -11.7094 -18.0853 0
rfingers 7.12502 0 0
rthumb 14.2795 -765.834 0
314
root 8.88433 15.5498 -23.3274 11.3313 52.4461 13.4255
lfemur -14.6644 19.9211 -16.4127
ltibia 48.3767 0 0
lfoot -20.1883 -15.2935 0
ltoes 44.9108 0 0
rfemur -52.8838 -16.6973 24.5873
rtibia 57.052 0 0
rfoot 14.4427 6.86621 0
rtoes 10.7673 0 0
lowerback 8.81492 -2.35014 -6.95236
upperback 4.77737 -3.54528 -3.25699
thorax 0.297492 -1.80007 0.811979
lowerneck -4.83757 -11.0443 -0.724865
upperneck -3.97813 -14.5768 9.48426
head 0.367098 -7.25856 2.82787
lclavicle -5.40769e-14 -4.50249e-15 0
lhumerus -45.6835 -46.5608 104.99
lradius 59.3921 0 0
lwrist 19.3645 0 0
lhand 13.9409 12.1282 0
lfingers 7.12502 0 0
lthumb 38.8536 37.6883 0
rclavicle -5.40769e-14 -4.50249e-15 0
rhumerus -24.6376 49.0595 -65.6018
rradius 80.5911 0 0
rwrist -1.5852 0 0
rhand -14.5728 -20.1466 0
rfingers 7.12502 0 0
rthumb 11.5229 -767.947 0
315
root 8.86272 15.5651 -23.2612 11.1925 51.6284 13.0832
lfemur -14.4258 20.0437 -16.1938
ltibia 47.8426 0 0
lfoot -20.5995 -13.7768 0
ltoes 42.9564 0 0
rfemur -52.5777 -16.0641 22.7546
rtibia 56.9483 0 0
rfoot 14.0477 5.36824 0
rtoes 12.3487 0 0
lowerback 8.68295 -2.22893 -6.72925
upperback 4.72767 -3.36585 -3.13511
thorax 0.300671 -1.71008 0.797987
lowerneck -4.73487 -11.142 -0.504128
upperneck -4.16474 -14.7013 9.30782
head 0.263618 -7.33248 2.74917
lclavicle -5.70313e-14 -3.10106e-15 0
lhumerus -46.1516 -47.1366 105.823
lradius 59.4307 0 0
lwrist 19.075 0 0
lhand 13.9947 12.2242 0
lfingers 7.12502 0 0
lthumb 38.9043 37.7698 0
rclavicle -5.70313e-14 -3.10106e-15 0
rhumerus -23.3094 45.9299 -65.1242
rradius 80.4978 0 0
rwrist -2.37346 0 0
rhand -17.4363 -22.208 0
rfingers 7.12502 0 0
rthumb 8.7662 -770.061 0
316
root 8.84112 15.5804 -23.195 11.0536 50.8106 12.7409
lfemur -14.1872 20.1663 -15.9748
ltibia 47.3085 0 0
lfoot -21.0107 -12.26 0
ltoes 41.002 0 0
rfemur -52.2716 -15.4308 20.9219
rtibia 56.8445 0 0
rfoot 13.6526 3.87027 0
rtoes 13.9301 0 0
lowerback 8.55098 -2.10772 -6.50614
upperback 4.67797 -3.18643 -3.01323
thorax 0.30385 -1.62009 0.783996
lowerneck -4.63216 -11.2396 -0.283392
upperneck -4.35136 -14.8258 9.13137
head 0.160138 -7.40641 2.67046
lclavicle -5.99858e-14 -1.69963e-15 0
lhumerus -46.6198 -47.7124 106.657
lradius 59.4693 0 0
lwrist 18.7854 0 0
lhand 14.0484 12.3203 0
lfingers 7.12502 0 0
lthumb 38.955 37.8514 0
rclavicle -5.99858e-14 -1.69963e-15 0
rhumerus -21.9811 42.8003 -64.6466
rradius 80.4044 0 0
rwrist -3.16172 0 0
rhand -20.2998 -24.2693 0
rfingers 7.12502 0 0
rthumb 6.00953 -772.174 0
317
root 8.81952 15.5957 -23.1288 10.9147 49.9928 12.3986
lfemur -13.9486 20.2889 -15.7558
ltibia 46.7743 0 0
lfoot -21.4218 -10.7433 0
ltoes 39.0476 0 0
rfemur -51.9655 -14.7975 19.0893
rtibia 56.7408 0 0
rfoot 13.2576 2.3723 0
rtoes 15.5116 0 0
lowerback 8.41901 -1.98651 -6.28303
upperback 4.62828 -3.007 -2.89134
thorax 0.30703 -1.5301 0.770004
lowerneck -4.52946 -11.3372 -0.062655
upperneck -4.53798 -14.9503 8.95492
head 0.0566575 -7.48034 2.59175
lclavicle -6.29402e-14 -2.982e-16 0
lhumerus -47.0879 -48.2882 107.491
lradius 59.5078 0 0
lwrist 18.4959 0 0
lhand 14.1022 12.4163 0
lfingers 7.12502 0 0
lthumb 39.0057 37.9329 0
rclavicle -6.29402e-14 -2.982e-16 0
rhumerus -20.6528 39.6707 -64.169
rradius 80.3111 0 0
rwrist -3.94998 0 0
rhand -23.1633 -26.3307 0
rfingers 7.12502 0 0
rthumb 3.25285 -774.288 0
318
root 8.79791 15.611 -23.0626 10.7759 49.175 12.0563
lfemur -13.71 20.4114 -15.5368
ltibia 46.2402 0 0
lfoot -21.833 -9.22652 0
ltoes 37.0932 0 0
rfemur -51.6594 -14.1643 17.2566
rtibia 56.6371 0 0
rfoot 12.8625 0.87433 0
rtoes 17.093 0 0
lowerback 8.28703 -1.8653 -6.05993
upperback 4.57858 -2.82757 -2.76946
thorax 0.310209 -1.44011 0.756012
lowerneck -4.42675 -11.4348 0.158081
upperneck -4.7246 -15.0748 8.77847
head -0.0468228 -7.55426 2.51304
lclavicle -6.58946e-14 1.10323e-15 0
lhumerus -47.556 -48.8639 108.324
lradius 59.5464 0 0
lwrist 18.2063 0 0
lhand 14.156 12.5124 0
lfingers 7.12502 0 0
lthumb 39.0563 38.0144 0
rclavicle -6.58946e-14 1.10323e-15 0
rhumerus -19.3245 36.5411 -63.6914
rradius 80.2178 0 0
rwrist -4.73825 0 0
rhand -26.0267 -28.392 0
rfingers 7.12502 0 0
rthumb 0.496175 -776.401 0
